# xmcd
#
# Track frame offsets: 
#        150
#        13718
#        25677
#        42758
#        55481
#        69593
#        83803
#        99757
#        111613
#        123840
#        142831
#        156500
#
# Disc length: 2173 seconds
#
# Revision: 3
# Processed by: cddbd v1.5.2PL0 Copyright (c) Steve Scherf et al.
# Submitted via: ExactAudioCopy v1.3
#
DISCID=98087b0c
DTITLE=The Oak Ridge Boys - The Oak Ridge Boys, 40th Anniversary, 1973
DTITLE=2013
DYEAR=2013
DGENRE=Country
TTITLE0=Leaving Louisiana in the Broad Daylight
TTITLE1=Elvira
TTITLE2=An American Family
TTITLE3=Thank God for Kids
TTITLE4=Amazing Grace
TTITLE5=I Know
TTITLE6=God Will Take Care of You
TTITLE7=American Made
TTITLE8=Jesus Is Coming Soon
TTITLE9=G.I. Joe and Lillie
TTITLE10=How Great Thou Art
TTITLE11=The Star-Spangled Banner
EXTD=YEAR: 2013
EXTT0=
EXTT1=
EXTT2=
EXTT3=
EXTT4=
EXTT5=
EXTT6=
EXTT7=
EXTT8=
EXTT9=
EXTT10=
EXTT11=
PLAYORDER=
